# xmcd CD database file
#
# Track frame offsets:
#	150
#	22147
#	43525
#	62569
#	77339
#	97180
#	119571
#
# Disc length: 1823 seconds
#
# Revision: 0
# Processed by: cddbd v1.4PL0 Copyright (c) Steve Scherf et al.
# Submitted via: CDex 1.50
#
DISCID=57071d07
DTITLE=Jeff Anderson - Melody For A King
DYEAR=2003
DGENRE=Worship
TTITLE0=Sing To The One
TTITLE1=Portion
TTITLE2=I Will Wait
TTITLE3=Holy
TTITLE4=Spirits Collide
TTITLE5=Living Water
TTITLE6=Meledy For A King
EXTD=YEAR: 2003
EXTT0=
EXTT1=
EXTT2=
EXTT3=
EXTT4=
EXTT5=
EXTT6=
PLAYORDER=
